<svg viewBox="0 8.751 799.3 378.063" width="100%" height="100%" xmlns="http://www.w3.org/2000/svg" xmlns:bx="https://boxy-svg.com">
  <text  style="fill: #a2e4f2; font-family: Arial, sans-serif; font-size: 16.3px; font-weight: 700; white-space: pre;" transform="matrix(14.680181503295898, 0, 0, 10.717506408691406, -934.81103515625, -980.1574096679688)" x="68.845" y="116.103" fill="#a2e4f2">Blue</text>
  <path d="M 571.179 175.612 Q 571.179 174.411 572.273 173.717 Q 573.441 172.977 574.969 173.424 Q 576.666 173.921 577.743 175.612 Q 578.952 177.512 578.758 179.988 Q 578.541 182.757 576.649 185.086 Q 574.553 187.665 571.179 188.739 Q 567.48 189.917 563.522 188.875 Q 559.221 187.744 556.021 184.363 Q 552.572 180.72 551.488 175.612 Q 550.328 170.143 552.232 164.673 Q 554.258 158.849 559.146 154.77 Q 564.323 150.449 571.179 149.358 Q 578.41 148.207 585.4 150.98 Q 592.745 153.895 597.705 160.297 Q 602.901 167.002 603.997 175.612 Q 605.142 184.603 601.495 193.115 Q 597.696 201.981 589.776 207.823 Q 581.544 213.894 571.179 214.994 Q 560.428 216.134 550.394 211.612 Q 540.006 206.931 533.284 197.491 Q 526.336 187.734 525.234 175.612 Q 524.096 163.102 529.495 151.546 Q 535.058 139.636 546.019 132.033 Q 557.3 124.208 571.179 123.103 Q 585.448 121.968 598.527 128.243 Q 611.959 134.688 620.442 147.17 Q 629.145 159.975 630.251 175.612 Q 631.385 191.639 624.232 206.242 Q 616.906 221.196 602.903 230.56 Q 588.574 240.14 571.179 241.248 Q 553.393 242.38 537.267 234.349 Q 520.79 226.143 510.547 210.618 Q 500.088 194.765 498.98 175.612 Q 497.848 156.067 506.758 138.418 Q 515.844 120.419 532.891 109.296 Q 550.268 97.958 571.179 96.849 Q 569.997 96.912 571.179 96.849" style="fill:#a2e4f2; stroke: rgb(0, 0, 0);" transform="matrix(1.2660950422286987, 0, 0, 1.181643009185791, -37.05960464477539, 4.578484058380127)"  bx:shape="spiral 571.179 175.612 0 78.763 0 1080 1@de0abc30"/>
  <path d="M 51.925 121.936 Q 51.925 121.527 52.298 121.29 Q 52.696 121.038 53.216 121.19 Q 53.795 121.36 54.162 121.936 Q 54.574 122.583 54.507 123.427 Q 54.434 124.37 53.789 125.164 Q 53.075 126.043 51.925 126.409 Q 50.665 126.81 49.316 126.455 Q 47.85 126.07 46.76 124.918 Q 45.585 123.676 45.216 121.936 Q 44.82 120.073 45.469 118.208 Q 46.159 116.224 47.825 114.834 Q 49.589 113.362 51.925 112.99 Q 54.389 112.598 56.771 113.543 Q 59.273 114.536 60.964 116.717 Q 62.734 119.002 63.108 121.936 Q 63.498 125 62.255 127.9 Q 60.961 130.921 58.262 132.912 Q 55.457 134.98 51.925 135.355 Q 48.262 135.744 44.843 134.203 Q 41.303 132.608 39.013 129.391 Q 36.645 126.066 36.27 121.936 Q 35.882 117.673 37.721 113.735 Q 39.617 109.677 43.352 107.087 Q 47.196 104.42 51.925 104.044 Q 56.787 103.657 61.244 105.795 Q 65.821 107.991 68.711 112.244 Q 71.677 116.608 72.054 121.936 Q 72.44 127.397 70.002 132.373 Q 67.506 137.469 62.735 140.659 Q 57.852 143.924 51.925 144.301 Q 45.865 144.687 40.37 141.95 Q 34.755 139.154 31.265 133.864 Q 27.701 128.462 27.324 121.936 Q 26.938 115.276 29.974 109.262 Q 33.07 103.129 38.879 99.339 Q 44.8 95.476 51.925 95.098 Q 51.603 95.115 51.925 95.098" style="fill:#a2e4f2; stroke: rgb(0, 0, 0);" transform="matrix(1.5596610307693481, 0, 0, 1.7226139307022095, -33.93757247924805, -70.4694595336914)" bx:shape="spiral 51.925 121.936 0 26.838 0 1080 1@5482dbf4"/>
</svg>