<?xml version="1.0" encoding="UTF-8" standalone="no"?>
<!-- Created with Inkscape (http://www.inkscape.org/) -->

<svg
   version="1.1"
   id="svg1"
   width="2027.0587"
   height="982.70276"
   viewBox="0 0 2027.0588 982.70276"
   sodipodi:docname="200a.svg"
   inkscape:version="1.3.2 (091e20ef0f, 2023-11-25)"
   xmlns:inkscape="http://www.inkscape.org/namespaces/inkscape"
   xmlns:sodipodi="http://sodipodi.sourceforge.net/DTD/sodipodi-0.dtd"
   xmlns="http://www.w3.org/2000/svg"
   xmlns:svg="http://www.w3.org/2000/svg">
  <defs
     id="defs1" />
  <sodipodi:namedview
     id="namedview1"
     pagecolor="#ffffff"
     bordercolor="#000000"
     borderopacity="0.25"
     inkscape:showpageshadow="2"
     inkscape:pageopacity="0.0"
     inkscape:pagecheckerboard="0"
     inkscape:deskcolor="#d1d1d1"
     showgrid="false"
     inkscape:zoom="0.46842531"
     inkscape:cx="132.35835"
     inkscape:cy="549.71411"
     inkscape:window-width="1920"
     inkscape:window-height="1011"
     inkscape:window-x="0"
     inkscape:window-y="0"
     inkscape:window-maximized="1"
     inkscape:current-layer="layer1" />
  <g
     inkscape:groupmode="layer"
     id="layer1"
     inkscape:label="Layer 1"
     transform="translate(-34.108071,-10.476794)">
    <path
       style="fill:#a2e4f2"
       d="m 1038.6666,991.42878 c -1.8333,-1.00847 -6.0333,-2.59274 -9.3333,-3.52059 -3.3,-0.92785 -7.8708,-2.78677 -10.1574,-4.13093 -3.1857,-1.87273 -6.9252,-2.44518 -16,-2.44929 -14.20778,-0.006 -31.70819,-2.68978 -47.62566,-7.30249 -14.36472,-4.16273 -23.72945,-8.79817 -31.40328,-15.5443 -7.12928,-6.2674 -11.01708,-7.31627 -31.39529,-8.47002 -20.90402,-1.18351 -26.60778,-3.38628 -40.13293,-15.49912 -13.45926,-12.05383 -14.63992,-12.80921 -23.71578,-15.17317 -7.53647,-1.963 -29.28882,-11.92543 -35.63286,-16.31961 -1.8681,-1.29392 -5.62214,-3.76424 -8.34232,-5.48959 -3.03478,-1.9249 -5.22108,-4.50083 -5.65827,-6.66667 -1.46457,-7.2554 -6.22697,-14.88747 -9.80107,-15.70687 -6.06951,-1.39151 -17.99597,-7.65195 -22.13514,-11.61917 -2.2,-2.10862 -5.2,-4.37596 -6.66666,-5.03853 -7.91623,-3.57622 -10.94912,-6.56772 -15.33333,-15.1241 -5.97622,-11.66338 -6.0997,-18.439 -0.48172,-26.43241 2.15928,-3.07228 6.15728,-6.83759 8.88445,-8.36735 6.69599,-3.75601 96.73873,-81.10966 128.26393,-110.18858 28.52322,-26.30989 66.02529,-64.06798 72.42495,-72.91937 2.48667,-3.43932 4.24171,-7.49727 4.24171,-9.80753 0,-2.25825 1.42319,-5.63217 3.33333,-7.90225 1.83334,-2.17879 3.33334,-5.43535 3.33334,-7.2368 0,-5.27204 -6.01798,-15.66737 -14.16312,-24.46511 -10.42043,-11.2553 -11.37288,-11.63286 -16.96325,-6.72446 -6.3889,5.60953 -14.22966,8.77472 -28.20696,11.38669 -15.91897,2.97481 -30.0519,2.11199 -44,-2.6862 -9.05866,-3.11622 -13.88269,-3.8235 -32,-4.69177 -23.38604,-1.12077 -27.76248,-2.27635 -37.05287,-9.78365 -9.30339,-7.51782 -11.19703,-8.1221 -23.6138,-7.53535 -29.68919,1.40295 -31.32489,1.16751 -45.99999,-6.6213 -17.54637,-9.31273 -21.28505,-10.52563 -37.21659,-12.07378 -21.03589,-2.04417 -37.03825,-4.91779 -38.27804,-6.87377 -0.62216,-0.98157 -1.14039,-2.77048 -1.15162,-3.97535 -0.0288,-3.08624 -2.59841,-3.74647 -14.37223,-3.69273 -12.55357,0.0573 -23.59044,-3.11163 -42.61097,-12.23457 -14.50595,-6.95758 -16.18156,-8.70598 -19.57452,-20.42498 -2.23435,-7.71726 -5.12763,-8.74336 -24.79603,-8.79387 -28.50169,-0.0732 -44.46109,-5.21176 -47.68955,-15.35492 -2.46544,-7.74591 -7.70833,-11.86269 -18.43622,-14.47634 -25.45093,-6.20065 -51.31161,-17.36308 -60.19181,-25.98102 -3.74482,-3.63423 -5.68692,-7.10629 -7.37886,-13.1919 -2.87587,-10.34393 -5.02917,-11.75974 -19.60949,-12.89337 -24.74204,-1.92372 -58.56502,-18.07418 -69.51854,-33.19508 -2.1132,-2.91719 -3.84218,-6.67993 -3.84218,-8.36166 0,-3.81865 4.65394,-7.19965 9.96334,-7.23817 2.22016,-0.0161 6.73665,-1.25602 10.03665,-2.75536 5.23572,-2.37884 5.69108,-2.89962 3.5748,-4.08839 -1.33387,-0.74927 -8.83387,-1.93576 -16.66667,-2.63666 -17.16274,-1.53577 -28.27416,-4.40931 -50.97424,-13.18252 -9.45088,-3.65262 -17.75128,-6.64112 -18.44533,-6.64112 -1.82169,0 -11.84743,-11.68411 -15.78943,-18.40118 -2.7794,-4.73603 -3.20477,-6.70937 -2.44298,-11.33333 0.50732,-3.07935 0.9204,-6.63701 0.91797,-7.9059 -0.002,-1.26889 0.55739,-2.6543 1.24406,-3.07869 4.55608,-2.81581 -1.62204,-6.28292 -20.08484,-11.27142 -40.05272,-10.82194 -109.333327,-48.46062 -109.333327,-59.39846 0,-1.01779 -1.143645,-2.46259 -2.541433,-3.21066 -1.397789,-0.74807 -4.227594,-4.21918 -6.288456,-7.71358 -3.484429,-5.90819 -3.750167,-7.38129 -3.7919,-21.02011 -0.03579,-11.69702 0.458328,-15.67905 2.440378,-19.66667 3.56059,-7.16342 7.676919,-6.86677 11.28704,0.81343 4.811669,10.23639 15.271968,16.81807 40.227698,25.31152 15.87046,5.40136 25.33334,7.31136 25.33334,5.11332 0,-1.98697 -6.11305,-6.31841 -23.88233,-16.92195 C 110.90353,159.1948 93.401184,145.47084 73.999997,126.03287 55.820814,107.81921 45.360275,94.055508 38.411668,79.206676 l -4.155729,-8.880587 -0.12797,-25.774597 c -0.109161,-21.986199 0.186337,-26.090005 2.010441,-27.920503 1.96465,-1.971537 2.412234,-1.820489 5.508226,1.858889 1.853397,2.202638 7.141274,10.336103 11.750836,18.074368 4.609563,7.738264 11.276727,17.318477 14.815919,21.289363 9.667364,10.84654 38.386859,31.901768 53.119939,38.944011 6.96667,3.32999 14.16666,6.89769 16,7.92823 8.55301,4.80774 16.13489,7.78412 25.33333,9.94495 5.5,1.29202 20.8,5.07282 34,8.40177 39.93288,10.07081 44.29348,9.76305 32.86619,-2.31962 -10.03211,-10.60748 -12.76483,-17.45734 -11.66888,-29.249334 0.47781,-5.141103 1.00389,-9.448189 1.16905,-9.571302 0.16517,-0.123114 1.98511,-0.628417 4.04432,-1.122895 3.25946,-0.782695 4.5572,-0.05536 10.02721,5.619887 15.28569,15.859214 23.33871,16.923134 153.5621,20.287714 98.87222,2.55456 113.74131,3.89006 155.71929,13.98629 29.47705,7.0896 46.77639,12.39302 56.72022,17.3886 5.0084,2.51612 9.97776,4.57476 11.04301,4.57476 3.4732,0 23.36116,8.1791 47.8508,19.67906 95.6088,44.89644 111.16013,50.9805 152.32526,59.59336 28.70852,6.0066 74.94225,8.35261 84.65237,4.29546 5.47979,-2.2896 5.18395,-1.17805 9.04089,-33.96889 2.97088,-25.2577 5.5244,-38.99515 8.63005,-46.42801 1.11071,-2.6583 2.64466,-8.80926 3.40878,-13.6688 1.3446,-8.55119 4.16766,-15.35023 13.88288,-33.435489 8.50261,-15.827924 8.93146,-27.263052 0.99157,-26.439802 -3.18268,0.329996 -3.59847,-0.08294 -3.59847,-3.573781 0,-3.022001 1.09355,-4.684844 4.66666,-7.096053 3.96571,-2.676141 5.86831,-3.059549 12.66667,-2.552554 4.4,0.328135 10.54407,1.39373 13.65348,2.367989 5.11231,1.601817 6.58007,1.478738 15.33333,-1.285775 27.46416,-8.673918 41.78276,-10.820868 72.15446,-10.818937 30.7413,0.002 50.131,2.565584 74.8587,9.897516 10.8806,3.226162 18.6459,4.663539 36.82,6.815501 3.3843,0.400731 7.2843,1.604386 8.6667,2.67479 2.4374,1.887377 2.4183,2.026681 -0.6318,4.609835 -3.9567,3.351105 -3.2839,6.720876 3.7272,18.66791 7.808,13.30471 11.7507,21.61224 15.3093,32.25711 4.0791,12.20219 12.7663,64.35487 12.5056,75.07622 -0.2308,9.49227 3.6721,19.65573 9.7963,25.50991 3.9533,3.77909 4.1802,3.8221 19.5699,3.70886 20.2275,-0.14884 52.3719,-3.88963 67.6555,-7.8734 25.9158,-6.75508 65.7055,-22.69152 123.248,-49.3629 61.5118,-28.5112 85.475,-38.0747 117.1672,-46.76059 48.6436,-13.33173 82.4106,-16.44801 208.8328,-19.27271 84.1987,-1.88128 102.1891,-3.70898 112.2818,-11.407089 2.4122,-1.839889 6.3356,-4.223488 8.7187,-5.296887 2.383,-1.073399 5.3558,-2.672606 6.6062,-3.553794 1.875,-1.321402 2.864,-1.047313 5.6438,1.564112 6.4684,6.076755 5.6412,9.793652 -5.4356,24.426048 -3.1982,4.22486 -5.8349,8.12486 -5.8593,8.66667 -0.072,1.5887 -4.9356,6.98511 -6.296,6.98511 -1.3814,0 -5.6596,4.36295 -5.6596,5.77165 0,0.49226 2.0096,0.89501 4.4658,0.89501 7.0047,0 63.0034,-14.8147 69.8508,-18.47935 1.3834,-0.74036 6.5697,-2.28639 11.525,-3.43562 11.9199,-2.7644 29.7163,-11.77852 50.1584,-25.405917 26.8495,-17.898848 32.7878,-23.348154 51.564,-47.318357 4.2881,-5.474213 7.178,-12.085839 9.7738,-22.360753 3.4211,-13.5414307 9.5768,-2.136923 10.3822,19.23459 1.0446,27.722091 -5.0241,46.768766 -22.3093,70.017687 -14.1416,19.02074 -37.0725,42.66834 -44.979,46.38482 -3.3639,1.58122 -9.1872,5.16441 -12.9406,7.96265 -3.7535,2.79824 -11.9245,7.95227 -18.1578,11.45341 -17.9003,10.05423 -25.3333,15.14612 -25.3333,17.35421 0,2.83258 6.7374,1.51255 21.9815,-4.30672 18.7704,-7.16543 36.8174,-16.50338 43.1194,-22.31112 4.6104,-4.2488 6.2155,-5.03718 8,-3.92939 4.5881,2.84825 6.2324,8.69944 6.2324,22.17849 v 13.03863 l -4.2034,3.28961 c -2.3118,1.80929 -7.3023,7.46998 -11.09,12.5793 -7.5442,10.17648 -15.4389,17.31561 -26.7066,24.15051 -4.0333,2.44659 -11.0464,7.26993 -15.5846,10.71854 -4.5383,3.44861 -10.2383,6.69176 -12.6667,7.20699 -2.4285,0.51524 -14.0154,4.70217 -25.7487,9.3043 -25.918,10.16572 -26.8401,10.46024 -45.9171,14.66606 -14.8171,3.26667 -22.2125,6.30709 -20.8203,8.55973 0.3746,0.606 5.5299,1.38251 11.4563,1.72558 8.309,0.481 11.3655,1.21397 13.3538,3.20225 2.5491,2.54906 2.5256,2.65697 -2.0583,9.46362 -5.144,7.63841 -19.3262,19.28851 -35.0583,28.79898 -11.2088,6.77604 -22.5627,9.91604 -49.5567,13.70532 -13.4967,1.89461 -18.6884,4.05436 -16.8594,7.01363 0.4705,0.76134 3.6915,1.75517 7.1577,2.20851 10.0846,1.31894 12.3023,2.66681 12.3023,7.47718 0,5.81506 -3.987,11.71604 -14.3021,21.16796 -15.4006,14.11185 -25.2901,17.55576 -56.9024,19.81553 -17.4829,1.24975 -19.4418,2.26765 -19.4841,10.12398 -0.055,10.24168 -10.3339,20.3001 -31.5489,30.87235 -8.8839,4.42715 -14.7607,6.41525 -21.4444,7.25448 -17.0199,2.1371 -33.6514,10.81401 -33.6514,17.55646 0,1.46403 -1.9601,4.62196 -4.3558,7.01762 -5.1015,5.10157 -13.8383,7.46257 -39.2619,10.61007 -20.013,2.47766 -25.0337,4.35747 -26.118,9.779 -0.5372,2.68604 -2.3338,4.8861 -5.53,6.77193 -2.7969,1.65021 -4.7343,3.83581 -4.7343,5.34076 0,1.78396 -1.9881,3.40271 -6.6336,5.40111 -7.8744,3.38748 -27.8946,8.76586 -40.0331,10.75481 -4.7667,0.78103 -10.5854,1.73386 -12.9306,2.11738 -2.3451,0.38352 -6.666,2.70421 -9.6019,5.15709 -5.8813,4.91373 -15.4362,7.70609 -34.8008,10.17032 -14.6427,1.86334 -30.153,5.8115 -39.7286,10.11295 -15.347,6.89397 -17.7321,7.37204 -42.5258,8.52381 -24.8907,1.15628 -27.0953,1.64277 -33.2366,7.33434 -8.6263,7.99456 -33.3344,12.25245 -54.5513,9.40071 -7.483,-1.00577 -8.3246,-0.84349 -12.0998,2.33317 -6.5365,5.50012 -14.212,6.68048 -38.6255,5.93996 l -21.8991,-0.66425 v 6.31771 c 0,3.47475 0.9,8.47172 2,11.10439 1.1,2.63267 2,8.55743 2,13.16613 v 8.37944 l 34.4334,41.33005 c 44.1414,52.98237 54.4394,64.37833 104.7058,115.86897 68.0361,69.6932 74.1941,76.84309 74.1941,86.14442 0,12.38265 -6.5201,24.10755 -16.735,30.09386 -7.1958,4.21704 -21.57,9.18409 -30.265,10.45816 -5.7904,0.84848 -6.3333,1.24147 -6.3333,4.58477 0,3.41534 -7.0878,12.17986 -9.8498,12.17986 -0.5809,0 -4.3669,2.95085 -8.4135,6.55744 -11.361,10.12591 -21.1948,14.806 -32.7361,15.57968 -10.843,0.72687 -22.1072,5.24282 -33.5088,13.43403 -13.6223,9.78664 -21.9278,12.6457 -40.4897,13.93805 -18.8367,1.31148 -34.8261,4.67762 -46.2796,9.7429 -18.4367,8.15357 -22.2296,8.72692 -57.1514,8.63915 -25.834,-0.0649 -36.0709,0.46754 -51.5346,2.68053 -22.3758,3.20217 -31.3837,3.41639 -36.0365,0.857 z m 38.6667,-4.82048 c 13.2143,-2.09126 22.3953,-7.06165 25.4437,-13.77471 3.0399,-6.6942 3.4076,-22.08541 0.7103,-29.73032 -1.7093,-4.84477 -2.8795,-17.93191 -2.3042,-25.76994 l 0.2447,-3.33333 1.9055,3.33333 c 1.048,1.83334 1.9268,6.47119 1.9527,10.30635 0.026,3.83516 0.9037,9.23516 1.9504,12 1.0467,2.76484 2.1489,10.00302 2.4495,16.08483 0.686,13.88276 3.0045,17.56565 12.3135,19.56004 3.6027,0.77186 6.7343,2.26519 7.0924,3.38212 1.075,3.35223 3.1672,3.95834 13.7372,3.97958 16.1997,0.0326 45.7207,-8.57056 53.4681,-15.58185 1.3032,-1.1794 2.3695,-3.44628 2.3695,-5.03751 0,-4.42131 -5.4609,-19.52599 -14.9983,-41.4845 -4.7481,-10.93165 -9.0469,-21.37572 -9.5529,-23.20906 -0.8969,-3.24914 -0.8662,-3.26598 1.2161,-0.66666 1.1749,1.46666 7.2728,12.62635 13.5508,24.7993 12.5228,24.28125 22.6449,39.24668 27.8953,41.24289 8.2652,3.14241 29.8346,-0.43611 38.3082,-6.35561 2.9025,-2.02762 7.4456,-4.79485 10.0957,-6.1494 6.9521,-3.55338 12.1518,-8.89248 12.1518,-12.47753 0,-1.70946 -3.0371,-9.16014 -6.749,-16.55709 -3.712,-7.39694 -6.457,-13.74106 -6.1,-14.09804 0.357,-0.35698 3.9231,3.75596 7.9247,9.13988 9.0549,12.18273 12.6097,15.50245 18.3686,17.15411 12.8738,3.69215 24.6916,0.30422 41.9925,-12.03848 7.1903,-5.12968 13.5471,-9.3267 14.1262,-9.3267 0.5791,0 1.4052,-1.4041 1.836,-3.12022 0.8791,-3.50261 -4.4648,-13.55788 -12.5137,-23.54645 -7.1276,-8.84532 -63.0304,-74.64459 -75.8757,-89.30814 -12.0841,-13.79456 -18.4505,-22.36209 -17.3985,-23.41406 1.6029,-1.60296 5.4179,1.59585 13.299,11.15104 27.8907,33.81542 68.6718,81.20182 80.0444,93.0092 14.4206,14.97206 21.1812,19.23606 30.4664,19.2156 15.0712,-0.0332 37.3468,-18.5503 37.2127,-30.93385 -0.072,-6.63253 -22.2209,-31.82186 -85.1673,-96.85769 C 1241.6404,688.47519 1212.6938,656.4349 1211.1129,649 c -0.9344,-4.39479 -4.9931,-4.96088 -7.1169,-0.99263 -0.7871,1.47072 -1.6956,6.42072 -2.019,11 -2.5918,36.70719 -3.8627,47.19098 -6.1812,50.99263 -1.3418,2.2 -2.8001,4.9 -3.2408,6 -0.4406,1.1 -2.2458,5.48955 -4.0114,9.75455 -1.7657,4.26501 -3.2103,8.67238 -3.2103,9.79417 0,1.1218 -1.1299,3.63225 -2.5108,5.57879 -1.3809,1.94653 -3.5056,7.4338 -4.7214,12.19391 -1.2159,4.76012 -2.786,9.23012 -3.4892,9.93334 -1.9431,1.94304 -1.5302,9.39582 0.85,15.34462 2.008,5.01838 1.9686,5.81561 -0.6953,14.06111 -3.1292,9.68594 -2.7328,11.55436 3.5772,16.86236 4.878,4.10341 10.9004,6.58612 30.3228,12.50043 9.4078,2.86477 18.7468,6.68977 22.6667,9.2837 3.6667,2.42634 7.8667,4.77029 9.3333,5.20877 5.3041,1.58575 13.6973,10.75447 15.456,16.88428 1.665,5.80301 2.2341,39.35433 0.6937,40.89475 -1.3921,1.39205 -8.4659,-2.48357 -9.8246,-5.38271 -0.7506,-1.60164 -2.0378,-5.40492 -2.8604,-8.45174 -3.7697,-13.96264 -30.5324,-34.4576 -48.5172,-37.15459 -7.7616,-1.16392 -8.7918,0.76379 -2.7177,5.08558 4.7307,3.36597 16.4369,16.6121 16.4369,18.59922 0,0.5552 0.9213,1.00946 2.0474,1.00946 2.9683,0 7.4522,11.29791 8.2618,20.8172 0.9384,11.0331 -1.9456,19.12515 -10.6474,29.87474 l -6.9951,8.64139 -0.3384,-6 c -0.6289,-11.15465 -1.7484,-14.72341 -5.7319,-18.27268 -2.1613,-1.92579 -3.9297,-4.46876 -3.9297,-5.65104 0,-1.18228 -0.8087,-3.3331 -1.7971,-4.7796 -0.9884,-1.44651 -2.8699,-5.48001 -4.1812,-8.96334 -1.3112,-3.48334 -2.9025,-6.33334 -3.5362,-6.33334 -0.6337,0 -1.1522,-0.77823 -1.1522,-1.7294 0,-2.9657 -9.6889,-11.05213 -16.6667,-13.91021 -12.7181,-5.20927 -31.8828,-8.70975 -42.0788,-7.6858 -5.09,0.51116 -9.2545,1.42564 -9.2545,2.03216 0,0.60653 -0.941,2.04379 -2.0912,3.19393 -2.123,2.12304 -1.4612,8.13746 0.7454,6.77372 1.6534,-1.02192 3.1385,7.15134 1.6438,9.04688 -0.6992,0.88663 -1.6067,4.24853 -2.0168,7.47088 -0.4101,3.22236 -1.4405,6.28828 -2.2898,6.81317 -1.0389,0.64204 -1.2406,2.97891 -0.6164,7.14117 0.7605,5.07166 0.5596,6.18684 -1.1149,6.18684 -1.1234,0 -3.3037,-2.04047 -4.845,-4.53437 -1.5413,-2.4939 -3.606,-4.84273 -4.5881,-5.21961 -2.524,-0.96856 -8.1378,-15.64449 -10.8985,-28.49174 l -2.3396,-10.88708 3.5786,-7.31433 c 4.5095,-9.21702 12.7263,-16.88621 18.0921,-16.88621 6.5108,0 24.9346,-17.5386 23.1925,-22.07829 -0.4624,-1.20499 -2.368,-0.53848 -6.5716,2.29852 -7.7336,5.21934 -20.0688,9.52225 -24.2728,8.46711 -3.0339,-0.76144 -3.2235,-1.27072 -2.4837,-6.6685 0.4903,-3.57677 0.045,-8.33514 -1.1471,-12.2648 -2.7364,-9.01901 -2.4664,-12.66063 1.3564,-18.29385 4.132,-6.08883 4.2131,-10.9859 0.3046,-18.38963 -2.9363,-5.5621 -3.8725,-8.20242 -8.4169,-23.73722 -1.1798,-4.03334 -3.0605,-9.73334 -4.1791,-12.66667 -1.4319,-3.75461 -2.3592,-13.81898 -3.1327,-34 -1.5242,-39.76557 -2.0641,-43.69337 -6.6349,-48.26414 -2.0547,-2.05472 -4.7413,-3.73586 -5.9702,-3.73586 -4.4804,0 -11.7092,4.58049 -15.6117,9.89212 l -3.9976,5.44121 0.8428,18.42646 c 0.7853,17.16991 0.6593,18.65968 -1.8474,21.84648 -1.4796,1.88101 -2.6902,4.8246 -2.6902,6.54132 0,1.71671 -1.1978,5.08579 -2.6617,7.48685 -1.4639,2.40106 -2.6639,6.23183 -2.6667,8.51283 0,2.28437 -1.5911,6.47679 -3.5361,9.33333 -1.9421,2.85234 -4.3598,6.98607 -5.3726,9.18607 -2.9139,6.32962 -6.4788,11.86306 -10.2969,15.98288 -1.9417,2.0951 -3.8946,5.35605 -4.3398,7.24653 -0.4452,1.89049 -1.8771,4.63725 -3.182,6.10392 -5.2717,5.92545 -6.8548,21.75179 -3.1434,31.42428 3.8629,10.06727 2.6971,11.05229 -12.16146,10.2751 -13.10699,-0.68558 -13.841,-0.38227 -11.82003,4.88428 0.45062,1.1743 6.30062,5.79742 13,10.2736 14.90249,9.95707 17.77959,12.51099 20.81439,18.47607 6.3896,12.5592 4.4605,23.74642 -5.8774,34.08431 -10.1756,10.17558 -25.76354,15.373 -32.13448,10.71445 -2.3897,-1.7474 -2.2011,-1.96308 2.92318,-3.3429 7.02815,-1.89249 8.25165,-3.49226 9.92904,-12.98259 2.81987,-15.95427 2.9932,-19.35909 1.04823,-20.59072 -2.9134,-1.84488 -16.3187,-1.41642 -27.57849,0.88147 -27.77782,5.66888 -49.02309,23.44739 -63.23393,52.91556 -3.09783,6.42376 -6.20193,11.48973 -6.89802,11.2577 -0.69608,-0.23203 -3.08929,-3.90401 -5.31823,-8.15997 -2.93483,-5.60379 -4.20312,-10.1017 -4.59828,-16.30754 -0.78828,-12.37981 3.91336,-21.22689 21.05379,-39.61689 7.36132,-7.89797 13.38422,-14.92086 13.38422,-15.60642 0,-1.7599 -2.45115,-1.55923 -10.758,0.88072 -12.18734,3.57975 -22.31434,9.7833 -29.54866,18.10078 -4.90339,5.63754 -7.93051,7.94584 -11.23268,8.56533 -2.89953,0.54395 -5.89985,2.52157 -8.36759,5.51536 -2.11597,2.56704 -4.46369,4.28634 -5.21716,3.82067 -2.03375,-1.25692 -6.87591,-14.96924 -6.87591,-19.47161 0,-4.87733 4.19464,-13.08461 9.00919,-17.62751 4.27609,-4.03481 40.59797,-18.71083 62.99081,-25.45172 l 15.33333,-4.61577 8.32248,-10.48135 c 12.33503,-15.53477 12.20062,-15.14802 5.26442,-15.14802 -4.24419,0 -6.53441,-0.76707 -8.38025,-2.80682 -2.29991,-2.54153 -2.54973,-5.18034 -2.64313,-27.91936 -0.0657,-15.99575 -0.63013,-25.74752 -1.55473,-26.86159 -0.79836,-0.96197 -1.75264,-6.54826 -2.12061,-12.41397 -0.95168,-15.1704 -2.00468,-20.63067 -5.09128,-26.4005 -2.11996,-3.96287 -2.53911,-6.50853 -1.92093,-11.66666 2.56026,-21.36325 2.57125,-19.9311 -0.15291,-19.9311 -4.71519,0 -14.29853,7.47125 -43.75297,34.1102 -57.98609,52.44329 -95.5866,85.4543 -121.97008,107.08249 -22.56424,18.49731 -40,35.70618 -40,39.47948 0,6.99102 18.32748,23.70525 35.61355,32.4787 8.32798,4.22682 13.67443,3.73001 21.28432,-1.9778 10.08419,-7.56367 14.57227,-12.12595 50.26065,-51.09161 41.35225,-45.14963 43.94067,-47.90292 42.69527,-45.4148 -2.20616,4.4076 -24.49684,31.09042 -55.55894,66.50621 -19.44544,22.17094 -32.48259,38.22531 -35.16562,43.30407 -2.74404,5.19425 -1.50959,8.86767 5.35273,15.92849 11.90758,12.252 29.15673,20.9279 41.60818,20.9279 5.79335,0 6.66319,-0.50641 14.73598,-8.57921 6.21651,-6.2165 9.81534,-11.2917 13.06767,-18.42849 2.64586,-5.80596 6.30498,-11.37776 8.91339,-13.5726 8.43351,-7.09633 5.91127,0.15869 -7.71151,22.18155 -13.13827,21.23959 -13.98659,26.14335 -5.80178,33.53783 6.54266,5.9109 18.88476,12.24676 28.97703,14.87547 9.25084,2.40954 26.50582,2.56511 31.02239,0.2797 6.02767,-3.05004 12.28673,-15.77675 19.81689,-40.29425 3.16019,-10.28925 8.27977,-19.69365 9.22418,-16.9443 0.54337,1.58186 -0.89136,6.49883 -9.02932,30.9443 -1.58683,4.76667 -3.21905,10.16667 -3.62715,12 -0.4081,1.83333 -1.38093,3.74807 -2.16186,4.25498 -0.78093,0.5069 -1.44151,4.50713 -1.46796,8.88939 -0.04,6.62294 0.49432,8.54566 3.16565,11.39181 3.929,4.18613 24.54797,14.46151 35.45292,17.66782 11.43816,3.36309 31.89237,3.33505 37.48597,-0.0514 6.4406,-3.89927 8.4945,-8.44083 7.6452,-16.90515 -0.5087,-5.06998 -0.049,-9.05015 1.5307,-13.24746 1.2418,-3.3 2.76,-9.60344 3.3738,-14.00764 0.6138,-4.4042 1.7569,-9.69326 2.5402,-11.75347 0.7833,-2.0602 1.443,-7.15676 1.466,-11.32569 0.031,-5.66772 1.0403,-9.58944 4,-15.54592 3.0004,-6.0385 3.9581,-9.81349 3.9581,-15.60104 0,-8.58661 1.9011,-19.27668 4.7713,-26.82898 1.0582,-2.78451 2.5046,-8.78451 3.2143,-13.33334 1.7411,-11.1605 3.8742,-19.37882 6.4031,-24.67031 1.168,-2.44396 1.9656,-7.04877 1.7943,-10.35909 -0.3741,-7.22631 0.6254,-9.28994 3.2354,-6.67999 2.8063,2.80633 2.3964,13.2169 -0.7517,19.09056 -1.4667,2.73648 -2.6667,6.29524 -2.6667,7.90836 0,1.61313 -0.6914,4.62201 -1.5364,6.68642 -1.4441,3.52802 -2.0813,6.9287 -4.5069,24.05317 -0.5428,3.8315 -1.4562,6.67626 -2.0299,6.32169 -1.468,-0.90723 -2.5472,4.95848 -3.1976,17.3786 -0.3072,5.86667 -1.4969,12.8974 -2.6439,15.62385 -1.1469,2.72644 -2.0853,6.81589 -2.0853,9.08765 0,2.27176 -0.5849,5.22352 -1.2999,6.55946 -0.715,1.33593 -2.2554,9.77277 -3.4231,18.74853 -1.1677,8.97576 -3.2345,19.89049 -4.5929,24.25495 -1.7335,5.56974 -2.2473,10.09026 -1.7237,15.1638 0.5234,5.07134 0.2785,7.22843 -0.8207,7.22843 -3.0976,0 1.2863,5.45071 7.6218,9.47646 13.4468,8.54448 35.4706,12.20749 54.9052,9.13184 z m 128.7026,-94.75643 c 8.1161,-2.04367 9.4298,-3.92706 7.4193,-10.63726 -0.8844,-2.9521 -2.7737,-6.53306 -4.1983,-7.95769 -1.4247,-1.42464 -2.5945,-3.04025 -2.5998,-3.59025 -0.01,-0.55 -5.156,-5.5 -11.4462,-11 C 1182.4598,847.51739 1176,840.10829 1176,836.63278 c 0,-2.04624 1.1288,-2.24174 9.6666,-1.67405 12.0421,0.80068 25.9428,6.48713 38.8203,15.88044 13.537,9.87442 19.1596,11.36714 25.0006,6.63738 2.9055,-2.35273 2.9846,-2.76959 1.1694,-6.16147 -1.0709,-2.0009 -2.8568,-3.97584 -3.9687,-4.38874 -1.1119,-0.4129 -2.8056,-1.84024 -3.7639,-3.17187 -0.9582,-1.33162 -2.4195,-2.42114 -3.2474,-2.42114 -0.8278,0 -2.7437,-1.12322 -4.2577,-2.49605 -2.9203,-2.64815 -16.7701,-8.17784 -35.3649,-14.11982 -18.324,-5.85544 -24.3716,-10.10733 -33.5044,-23.55603 -9.6206,-14.16699 -20.5001,-19.33248 -27.009,-12.82362 -3.9631,3.96318 -6.3787,11.80687 -5.2988,17.2063 1.0528,5.26383 -2.7838,13.41327 -7.6748,16.30247 -2.1454,1.2673 -3.9195,3.02026 -3.9426,3.89547 -0.064,2.43254 -5.4988,5.85483 -12.0571,7.5924 -7.1811,1.90256 -12.433,6.60785 -16.692,14.95456 -7.704,15.09836 -1.0631,27.66369 11.9203,22.55448 2.2361,-0.87993 2.2667,-1.13162 0.3333,-2.73621 -2.6749,-2.21996 -2.7309,-6.6549 -0.131,-10.36676 1.5013,-2.14341 1.5921,-2.98819 0.3652,-3.39715 -0.8981,-0.29938 1.1054,-2.14911 4.4523,-4.11051 7.551,-4.42518 15.8797,-4.65937 31.6081,-0.88874 15.5132,3.71903 29.4767,10.48623 36.8485,17.85808 3.3722,3.37212 6.6688,6.13113 7.326,6.13113 0.6572,0 1.9145,2.25 2.7941,5 2.3994,7.50207 6.8629,15 8.9293,15 1.0069,0 4.4783,-0.66666 7.7142,-1.48146 z M 908.30024,881.84472 c 2.29232,-1.1854 9.69453,-7.42026 16.44936,-13.85525 6.75483,-6.43498 14.8995,-13.21918 18.09927,-15.07599 8.34059,-4.84002 19.75755,-7.53629 35.86066,-8.46897 21.00628,-1.21668 25.48837,1.92209 22.81987,15.98074 -1.175,6.19104 -1.0915,6.47478 2.2922,7.7837 1.9314,0.74714 5.3995,1.6742 7.7069,2.06012 5.2196,0.87301 6.0805,-1.23116 6.0275,-14.732 -0.042,-10.59547 -1.2919,-15.04075 -5.2275,-18.58485 -2.5868,-2.32949 -14.43313,-9.84741 -22.2677,-14.13153 -6.83075,-3.73521 -7.92775,-5.53874 -8.86259,-14.57065 -1.20228,-11.61582 -5.65523,-20.232 -13.15325,-25.45073 -5.78525,-4.02661 -6.00842,-4.07241 -6.98458,-1.43361 -0.91641,2.4773 -6.66049,10.38748 -11.72708,16.14939 -1.1,1.25096 -3.5,4.73708 -5.33334,7.74693 -2.73081,4.48327 -3.92874,5.36909 -6.6273,4.90059 -1.81168,-0.31453 -6.31168,0.50852 -10,1.82901 -3.68831,1.32049 -15.30273,5.21624 -25.80982,8.65724 -23.62177,7.73596 -32.02054,11.40316 -37.21179,16.24799 -4.61204,4.30428 -8.88046,11.95193 -7.2375,12.96733 0.60709,0.37521 4.98022,1.07934 9.71806,1.56475 l 8.61427,0.88256 3.46094,-4.53753 c 6.75478,-8.85597 30.4653,-17.8126 50.74041,-19.16715 l 12.35273,-0.82526 -10.66666,9.73152 c -21.81962,19.90671 -36.78963,35.17927 -37.58376,38.34336 -0.60529,2.41166 -0.0335,3.89563 2.19713,5.70186 3.7156,3.00871 6.94449,3.08357 12.35357,0.28643 z m 204.90716,-74.82188 c 2.6359,-2.00411 9.0645,-7.59872 14.2858,-12.43247 9.6031,-8.89023 15.6945,-12.62792 22.9429,-14.07759 3.3653,-0.67306 4.9099,0.0585 9.9685,4.72139 5.536,5.10289 6.1498,5.35423 8.162,3.34208 1.833,-1.83307 2.035,-4.04008 1.2822,-14.0117 -0.5524,-7.31784 -0.3819,-12.48397 0.4467,-13.53357 0.7371,-0.93371 2.3759,-6.00331 3.6418,-11.26579 1.2745,-5.29814 3.4384,-10.59688 4.8488,-11.87332 1.401,-1.26784 2.5472,-3.48715 2.5472,-4.93179 0,-2.76271 5.0213,-15.26756 9.755,-24.29341 2.1464,-4.09251 2.8904,-8.28029 3.1981,-18 0.6081,-19.21234 -2.0068,-61.32115 -4.2717,-68.78701 -2.3523,-7.75415 -2.4581,-8.97771 -0.6814,-7.87966 2.0099,1.24216 1.6187,-6.18912 -0.6667,-12.66667 -1.1,-3.11773 -2,-9.41157 -2,-13.98631 0,-7.55304 0.8485,-10.08114 9.2297,-27.49904 14.4684,-30.06858 22.7571,-56.61587 29.9257,-95.84798 5.253,-28.74796 6.7865,-46.63446 6.7446,-78.66667 -0.035,-26.45077 -0.4649,-32.45815 -3.6363,-50.77761 -4.1473,-23.95638 -4.3049,-27.16695 -1.5888,-32.3748 1.0955,-2.10049 1.9918,-4.65049 1.9918,-5.66666 0,-2.57178 3.4471,-2.31101 12.7129,0.96175 9.1608,3.23567 22.0177,2.75275 26.1446,-0.98203 2.0012,-1.81107 3.3253,-1.93003 8.1007,-0.72778 5.362,1.34993 11.3064,0.74944 17.3751,-1.75518 2.8532,-1.17754 2.9963,-4.47122 0.3579,-8.23809 -3.7405,-5.34025 -0.6041,-6.25016 31.3907,-9.10699 41.9492,-3.74565 69.592,-10.41696 80.0186,-19.31161 l 4.5661,-3.89531 -4,-3.30189 -4,-3.30189 4.6667,-1.93014 c 2.5667,-1.06157 7.6667,-2.34773 11.3333,-2.85812 9.6016,-1.33652 31.4977,-6.98322 41.1134,-10.60256 11.305,-4.25518 24.8866,-11.22959 24.8866,-12.7797 0,-1.06362 -3.8164,-2.41634 -16.6666,-5.90746 -2.0552,-0.55833 16.9601,-12.45661 27.7255,-17.34849 28.7491,-13.06375 68.3117,-24.12582 114.2745,-31.95217 25.6185,-4.36222 50.0094,-6.98666 88,-9.46874 17.2333,-1.12592 44.2333,-3.882 60,-6.12462 65.1746,-9.27032 84.3169,-15.9761 104.6666,-36.66601 5.8667,-5.96475 11.7506,-12.728749 13.0754,-15.031113 C 1877.2887,92.339411 1877.3029,92 1875.2497,92 c -1.2288,0 -5.6128,2.030953 -9.742,4.513229 -11.4989,6.912461 -18.0539,9.965721 -24.4934,11.408861 -10.9726,2.45899 -41.491,4.03592 -117.681,6.08071 -126.6289,3.39848 -142.5293,5.1295 -197.6711,21.51982 -30.9788,9.20812 -50.4116,17.06718 -97.8801,39.585 -86.1239,40.85493 -117.6479,51.27454 -180.4488,59.64359 -23.3701,3.11437 -37.2438,2.92458 -42.5966,-0.58271 -7.0992,-4.65153 -11.0203,-17.34233 -12.2051,-39.50183 -0.4509,-8.43334 -1.6367,-18.33334 -2.6351,-22 C 1188.8981,169 1186.8445,158.8 1185.3329,150 c -3.1878,-18.5579 -6.5922,-29.76536 -12.8424,-42.27757 -4.8408,-9.690672 -12.5218,-18.389097 -16.2383,-18.389097 -7.0081,0 -11.9216,8.982778 -8.6306,15.778087 2.7765,5.73285 1.6083,8.90792 -6.8166,18.52692 -8.5898,9.80726 -10.1345,13.4253 -6.7794,15.87865 1.2939,0.9461 3.0172,1.94174 3.8296,2.21255 0.8125,0.27081 -0.3226,2.04341 -2.5224,3.93912 l -3.9995,3.44674 0.4323,17.35961 c 0.383,15.38095 0.1089,18.0909 -2.4048,23.77563 -5.4836,12.40086 -15.0562,19.00035 -27.637,19.05341 -5.704,0.0241 -9.0069,-1.0593 -18.5093,-6.0711 -17.3239,-9.13696 -19.2603,-7.82371 -25.1815,17.07793 -5.3787,22.62 -12.897,42.35579 -16.1352,42.35579 -2.1602,0 -4.4599,-6.08241 -11.8049,-31.223 -8.5122,-29.13554 -11.3496,-36.004 -15.093,-36.5361 -1.6474,-0.23417 -4.7528,0.82565 -6.9008,2.35516 -14.91841,10.62286 -31.91754,10.85493 -43.89893,0.59931 -13.01855,-11.14339 -15.4198,-27.20593 -6.73911,-45.07953 l 2.64651,-5.44918 -3.72001,-3.22237 c -2.04601,-1.77231 -3.05531,-3.44394 -2.24289,-3.71475 0.81242,-0.27081 2.53575,-1.26646 3.82961,-2.21256 3.35515,-2.45334 1.81043,-6.07139 -6.77937,-15.87864 -8.42492,-9.619 -9.59312,-12.79407 -6.81662,-18.52692 1.51247,-3.12292 1.68432,-5.11285 0.68828,-7.97009 C 944.33646,93.7136 943.30238,92 942.76862,92 c -2.16527,0 -6.9674,6.607961 -8.29419,11.41321 -0.77803,2.81779 -2.83677,6.98781 -4.57499,9.26673 -9.23037,12.10165 -18.99017,54.25806 -22.02459,95.13294 -0.79508,10.70995 -2.00239,20.51302 -2.68291,21.78459 -2.25025,4.20462 -11.39135,5.59474 -37.19197,5.6559 -22.15185,0.0525 -27.24945,-0.39443 -50,-4.38376 -30.45489,-5.34029 -34.37197,-6.39905 -60,-16.21752 -25.97799,-9.95255 -54.37193,-22.34038 -88.50844,-38.61485 -44.52286,-21.22613 -96.61977,-40.60814 -137.68266,-51.22314 -15.54101,-4.01744 -21.20477,-4.78477 -44.47556,-6.02559 -46.93485,-2.50261 -54.74953,-2.80274 -125.99999,-4.83913 -101.74819,-2.90802 -110.02229,-3.85162 -127.66666,-14.559377 l -9.66667,-5.866363 v 4.49042 c 0,7.91123 14.13556,21.92834 30,29.74862 27.85024,13.72859 76.66081,21.81008 178.66666,29.58155 23.20763,1.76811 55.03307,5.85203 73.74625,9.4633 24.51621,4.73114 84.82522,23.40443 94.25374,29.1835 2.2,1.34845 6.4,2.88904 9.33334,3.42353 6.13037,1.11702 10.9619,4.46433 13.49704,9.35081 1.6732,3.2251 1.53855,3.4951 -2.60685,5.22716 -2.40415,1.00452 -5.98797,2.23219 -7.96402,2.72815 -1.97606,0.49596 -3.59284,1.47574 -3.59284,2.17729 0,1.68126 16.99146,9.48017 29.67471,13.6204 5.53953,1.80829 18.62382,4.8611 29.0762,6.78403 24.328,4.47564 26.03095,5.34682 22.25881,11.38697 -6.70249,10.73239 31.26536,22.68189 84.54411,26.60828 29.56496,2.1788 33.24293,3.569 25.1913,9.52183 -2.24316,1.65844 -4.07847,3.4871 -4.07847,4.06369 0,0.57659 1.93309,2.04799 4.29575,3.26977 7.77181,4.01896 68.19446,1.00918 84.89097,-4.22859 3.09221,-0.97004 3.15571,-0.84535 2.14109,4.20465 -2.16377,10.76964 -2.64964,127.53582 -0.53392,128.31544 1.97457,0.72762 1.36749,4.22223 -0.73348,4.22223 -3.36896,0 -3.95113,8.22349 -0.94991,13.41801 1.45603,2.52009 3.9259,10.28199 5.4886,17.24865 6.15369,27.43369 8.24846,35.35111 9.46599,35.77778 0.69753,0.24445 1.26824,1.90259 1.26824,3.68476 0,1.78217 0.56141,4.28217 1.24757,5.55556 3.20272,5.94359 5.41909,11.60956 5.41909,13.85342 0,1.354 0.55347,2.46182 1.22994,2.46182 0.67646,0 1.95738,2.25 2.84649,5 0.88911,2.75 3.03564,7.45271 4.77007,10.45047 1.73443,2.99777 3.1535,6.41454 3.1535,7.59284 0,1.1783 5.71719,11.02559 12.70487,21.88286 6.98767,10.85727 13.59508,22.76953 14.68313,26.47168 2.20262,7.49455 2.16609,7.7917 -4.73783,38.53996 -2.2975,10.23246 -4.17094,20.43246 -4.16321,22.66667 0.008,2.2342 -1.23673,8.15207 -2.76548,13.15082 l -2.77955,9.08865 2.7158,4.91135 c 3.62397,6.55373 5.67561,16.93203 5.67561,28.71032 0,5.31724 0.66665,10.33436 1.48144,11.14916 0.9782,0.97819 1.43116,8.87523 1.33343,23.24692 -0.0835,12.2725 0.47228,23.645 1.27419,26.07483 1.49157,4.51951 2.09397,4.76127 15.38865,6.17609 7.49433,0.79755 14.49501,4.34779 16.32927,8.28104 0.83949,1.80015 2.16383,4.623 2.94298,6.273 1.65408,3.50286 16.62345,15.66667 19.28015,15.66667 3.13719,0 3.89169,-2.92617 4.64149,-18 0.7226,-14.52727 0.7976,-14.79972 7.888,-28.66667 8.4651,-16.55553 14.4965,-26.26818 19.2868,-31.05855 2.4525,-2.45244 3.4869,-4.89303 3.4869,-8.2266 0,-6.50159 5.3764,-28.9016 7.5573,-31.4865 2.0963,-2.4846 2.3287,-5.22835 0.4427,-5.22835 -0.7333,0 -1.3333,-2.22959 -1.3333,-4.95464 0,-7.35057 5.3622,-31.37874 7.5641,-33.89491 1.0506,-1.20059 5.5306,-3.80759 9.9554,-5.79335 20.3048,-9.11226 26.3618,1.99939 26.5154,48.6429 0.086,26.11768 0.7175,31.33948 5.0793,42 1.5003,3.66667 3.7067,11.03175 4.9031,16.36685 1.1965,5.3351 3.6248,12.2351 5.3963,15.33333 3.8121,6.66705 4.4652,18.64253 1.2659,23.21026 -2.6703,3.81232 -3.8102,11.7312 -2.1384,14.85502 0.7459,1.39366 1.7054,4.51607 2.1322,6.93869 0.4268,2.42263 1.0853,4.90526 1.4634,5.51698 1.2814,2.07342 4.9274,1.1255 9.7374,-2.53162 z M 892.68749,573.93855 c 14.68242,-3.82429 21.96454,-10.90125 21.97416,-21.3551 0.007,-7.74872 -7.27584,-28.24389 -12.22487,-34.40231 -3.15189,-3.9221 -4.33878,-6.92062 -4.76399,-12.03563 -0.31147,-3.7467 -1.36504,-8.61218 -2.34128,-10.81218 -0.97624,-2.2 -3.1029,-9.4 -4.72592,-16 -1.62301,-6.6 -3.45684,-13.2 -4.07518,-14.66666 -0.61834,-1.46667 -2.43343,-7.46667 -4.03354,-13.33334 -2.54485,-9.33046 -2.97589,-14.92581 -3.44095,-44.66666 -0.36519,-23.35421 -0.0198,-36.71364 1.10297,-42.66667 0.96956,-5.14051 1.67663,-21.22597 1.73785,-39.53516 0.0921,-27.54023 -0.12049,-30.74877 -1.97162,-29.7581 -7.67217,4.10595 -56.18354,8.4006 -76.72794,6.79264 -12.51326,-0.97939 -15.79192,-2.85917 -14.68039,-8.41683 1.146,-5.73001 -2.82294,-7.43468 -21.21067,-9.11006 -35.48391,-3.23309 -74.07337,-14.50756 -89.63948,-26.18949 -2.38333,-1.78862 -4.33333,-4.06817 -4.33333,-5.06566 0,-3.92439 -7.51699,-8.28697 -15.76421,-9.14898 -10.99458,-1.14916 -54.93042,-15.24799 -57.90246,-18.58065 -1.28333,-1.43906 -2.33333,-3.10396 -2.33333,-3.69979 0,-2.18505 6.71359,-8.97757 10.85631,-10.98395 l 4.26259,-2.06443 -11.22612,-5.27639 C 553.50506,180.53377 497.21279,168.01605 413.99998,161.32967 332.48967,154.78008 244.5641,142.35376 196.39851,130.57653 159.83617,121.63648 122.7522,106.15839 97.33333,89.228753 81.86524,78.926596 59.385233,56.881126 48.729171,41.56411 44.480939,35.457703 40.504137,30.962528 39.891834,31.574831 c -1.352503,1.352504 -1.649038,8.046676 -1.027662,23.199119 0.422965,10.314147 1.032684,12.57719 6.19241,22.983856 7.091148,14.302154 17.125221,26.964924 35.080295,44.270514 26.257453,25.30766 49.311173,42.02686 76.935723,55.79591 19.90724,9.92248 30.97589,14.22663 48.26073,18.76666 23.68013,6.21981 38.96089,7.44718 108.66666,8.72825 35.93333,0.66039 67.43333,1.25199 70,1.31466 4.25649,0.10394 4.43228,0.25688 2,1.74008 -3.63598,2.2172 -122.78395,2.06436 -157.13003,-0.20156 -58.02586,-3.82815 -118.38242,-19.14616 -137.416832,-34.87528 -3.585075,-2.96253 -7.178652,-5.15523 -7.985725,-4.87266 -2.914851,1.02054 -1.394542,14.51088 2.50662,22.24229 14.492127,28.72079 75.251007,63.26536 139.359297,79.23297 33.67916,8.38855 48.35763,8.48224 100.66667,0.64255 56.68624,-8.49572 64.79457,-9.33552 95.99999,-9.94302 16.86667,-0.32836 30.06667,-0.33723 29.33334,-0.0197 -0.73334,0.31751 -12.13334,1.56195 -25.33334,2.76542 -30.73358,2.80205 -72.21075,8.65236 -103.92429,14.65841 -23.00076,4.35599 -26.96619,4.7308 -50.94301,4.81507 -14.3004,0.0503 -26.35541,-0.2633 -26.78893,-0.69681 -0.43351,-0.43351 -1.8882,-0.78821 -3.23265,-0.78821 -1.34444,0 -2.44444,-0.53002 -2.44444,-1.17782 0,-1.69905 -5.39265,-2.8581 -9.03933,-1.94284 -1.89494,0.4756 -2.84964,1.48684 -2.43176,2.5758 0.37838,0.98604 0.12334,2.14175 -0.56674,2.56824 -0.69008,0.4265 -1.28796,2.09571 -1.32862,3.70937 -0.0407,1.61366 -0.11263,4.59497 -0.15993,6.62515 -0.26572,11.40528 27.57967,29.22493 57.56139,36.8364 27.04033,6.86473 49.30132,6.5401 79.14247,-1.15411 35.73573,-9.21407 66.87215,-15.23461 100.15584,-19.36613 15.2245,-1.88982 41.87142,-2.7677 40.43587,-1.33215 -0.37138,0.37138 -9.62138,1.90245 -20.55555,3.40237 -64.58248,8.85927 -121.45603,22.69976 -150.77614,36.69221 -5.25937,2.50993 -10.23327,4.56351 -11.05311,4.56351 -2.98481,0 -12.05106,5.43675 -12.05106,7.22665 0,2.57437 12.80638,13.89318 21.79165,19.26037 4.13148,2.46786 12.7685,6.32357 19.19339,8.56823 16.06617,5.61304 37.31825,6.49921 57.28151,2.38853 16.70433,-3.43963 42.14815,-12.19324 68.87391,-23.69516 39.63729,-17.05864 71.71731,-29.08211 74.63432,-27.97264 3.51721,1.33775 -54.17028,27.04131 -104.43499,46.53264 -30.12194,11.6805 -45.33419,18.66857 -48.67467,22.35975 -9.77007,10.7958 39.47442,34.62642 71.6137,34.65563 9.5084,0.009 11.10739,-0.41921 21.33333,-5.70819 6.07998,-3.14463 25.75451,-15.36414 43.72117,-27.15447 17.96667,-11.79032 38.06667,-24.49909 44.66667,-28.24171 12.06144,-6.83961 28.49835,-14.16571 29.51079,-13.15327 0.64915,0.64914 -0.66604,1.53375 -47.51079,31.95649 -48.51404,31.50683 -62.38828,41.15492 -72.10911,50.14439 -9.31783,8.61679 -9.40224,10.39255 -0.73468,15.45573 10.29235,6.0123 25.10822,9.17214 43.51046,9.27966 23.81739,0.13915 22.38668,0.97536 77.52072,-45.30861 29.90041,-25.10082 49.14594,-39.00178 49.14594,-35.49788 0,1.96515 -14.06374,14.45922 -45.19481,40.15058 -16.38145,13.51902 -35.71412,30.42736 -42.96149,37.57408 -15.88319,15.6626 -16.60817,18.18911 -7.3874,25.74484 10.63318,8.71309 32.417,16.70019 45.67807,16.74799 14.28574,0.0515 19.6041,-4.04952 66.36284,-51.17267 39.66028,-39.96935 41.78521,-41.01297 12.83612,-6.30419 -17.56994,21.06565 -36.04435,40.36416 -49.5552,51.76575 -5.74464,4.8478 -10.43955,9.17043 -10.43314,9.60584 0.006,0.4354 3.53917,3.06415 7.85056,5.84166 9.67208,6.23101 19.55226,8.29575 39.47111,8.2486 13.1738,-0.0312 15.47572,-0.41002 22.61509,-3.72189 16.89243,-7.8362 24.85523,-16.15444 49.37289,-51.57673 16.91165,-24.43339 23.67986,-32.99647 24.39189,-30.86038 1.9197,5.75908 -34.24666,56.32141 -54.65099,76.40475 -16.72902,16.46585 -15.8048,20.59199 5.92884,26.46888 23.82287,6.44184 42.85376,0.78986 62.40977,-18.53506 11.67126,-11.53334 20.75757,-24.90246 34.53402,-50.81152 5.26405,-9.9 10.71624,-19.16738 12.11596,-20.59417 2.50951,-2.55805 2.52543,-2.52091 1.14291,2.66666 -2.21933,8.32757 -14.97624,33.46563 -23.69522,46.69249 -4.38627,6.65407 -12.79452,17.37446 -18.68499,23.82308 -12.25776,13.41925 -14.68645,18.545 -11.60785,24.49836 2.51896,4.87114 9.53189,7.81361 23.22045,9.74281 31.57599,4.45017 41.14063,-3.065 59.60004,-46.82923 4.17575,-9.9 8.19133,-18.6 8.92353,-19.33333 3.67059,-3.67629 -4.26018,18.51476 -18.10756,50.66666 -5.7062,13.2491 -3.94381,22.0467 4.79064,23.91418 1.66865,0.35676 4.23391,0.9396 5.70058,1.29519 4.45672,1.08052 22.3808,-0.44053 30.68752,-2.60415 z m 346.80051,-0.0767 c 7.7187,-3.76867 7.7054,-9.26463 -0.069,-28.60663 -3.3289,-8.28182 -6.3972,-17.20224 -6.8184,-19.82317 -0.7256,-4.51613 -0.6555,-4.62824 1.3414,-2.14383 1.1588,1.44182 5.1337,8.51382 8.8329,15.71555 3.6993,7.20173 8.6384,15.27213 10.9757,17.93423 8.1194,9.24768 22.1325,12.5721 41.4953,9.84425 11.7454,-1.65469 17.736,-4.48331 20.7076,-9.77775 1.8074,-3.22001 1.732,-4.03065 -0.8616,-9.26657 -1.5633,-3.15584 -6.6081,-9.93788 -11.2107,-15.07121 -9.5016,-10.59733 -19.6573,-25.71449 -27.7674,-41.33334 -3.0463,-5.86666 -6.7787,-12.62592 -8.2942,-15.02058 -2.8889,-4.56459 -2.5592,-8.76881 0.5926,-7.55933 1.0154,0.38966 3.2211,3.52954 4.9014,6.97752 1.6803,3.44799 8.2222,14.95359 14.5375,25.56802 14.4204,24.23686 28.2572,39.201 40.8158,44.14136 7.0506,2.77358 10.2153,3.14844 26.6667,3.15866 11.4619,0.007 20.913,-0.65662 24.4866,-1.71969 7.0643,-2.10146 12.8042,-7.33414 11.1964,-10.20709 -0.6117,-1.09297 -7.6906,-8.75324 -15.7309,-17.02281 -20.0456,-20.61712 -52.6368,-66.61917 -52.6122,-74.26136 0.01,-2.74546 4.321,2.55338 16.231,19.9453 25.3437,37.00848 40.1287,52.74887 57.7482,61.4797 9.8555,4.88356 12.4709,5.58581 23.0494,6.18898 16.6844,0.9513 31.2015,-2.30537 37.2533,-8.35713 2.408,-2.40802 4.3782,-5.63564 4.3782,-7.1725 0,-1.73279 -4.432,-7.23741 -11.6667,-14.49041 -13.323,-13.35664 -30.654,-32.92982 -56.3575,-63.64864 L 1375.4588,418 l 44.6039,44.85738 c 48.8504,49.12804 52.2653,51.80929 65.9858,51.80929 9.4218,0 25.8486,-4.41151 35.417,-9.51139 8.0967,-4.31547 15.8678,-11.72322 15.8678,-15.1258 0,-6.43307 -48.018,-51.56846 -91.8084,-86.29706 -9.0613,-7.18617 -16.0111,-13.06575 -15.444,-13.06575 2.4457,0 19.1095,10.11505 29.083,17.65369 5.9598,4.5048 19.7347,15.72559 30.6109,24.93509 46.2181,39.13572 52.1142,42.16643 79.9841,41.11327 17.7954,-0.67246 28.1432,-3.4351 36.3701,-9.7101 6.4479,-4.91808 7.154,-9.15714 2.3706,-14.23206 -3.8406,-4.07462 -63.6031,-44.23681 -92.6164,-62.24094 -21.6137,-13.41236 -29.0813,-21.77907 -13.7128,-15.36385 5.5028,2.29697 34.0096,20.16483 62.4962,39.17205 23.6884,15.80571 41.2942,25.96923 49.7724,28.73279 20.4319,6.65996 62.2792,-4.53023 76.2359,-20.38588 9.6342,-10.94498 8.4732,-17.58244 -3.6875,-21.08125 -26.8161,-7.71536 -37.2509,-11.55012 -61.9464,-22.76496 -15.1941,-6.90001 -39.1518,-17.37541 -53.2393,-23.27865 -14.0875,-5.90324 -26.856,-11.64269 -28.3744,-12.75434 -2.5699,-1.88152 -2.3461,-1.95762 3.2393,-1.10134 10.2745,1.57512 36.1242,10.80822 63.6138,22.7218 62.5307,27.09982 71.1767,29.84652 97.2298,30.88837 20.7775,0.83088 32.1412,-1.19751 47.2359,-8.43144 17.5332,-8.40258 34.4936,-22.52999 31.0844,-25.89234 -0.6401,-0.63138 -8.3639,-4.22931 -17.1639,-7.9954 -38.5291,-16.48909 -78.9579,-26.99583 -141.16,-36.68502 -28.0012,-4.36174 -32.0329,-5.76926 -16.84,-5.87898 20.9891,-0.15157 69.9575,8.25264 113.3333,19.45089 20.2658,5.23198 25.7197,6.12019 41.485,6.75621 29.2454,1.17985 51.6943,-3.40986 76.515,-15.64365 20.9895,-10.34543 31.9453,-19.90531 27.6893,-24.16133 -0.7911,-0.79109 -6.7448,-2.01049 -13.2305,-2.70977 -10.6612,-1.14949 -23.5632,-3.25879 -96.4913,-15.77504 -29.2458,-5.0193 -65.4461,-10.21516 -92.9243,-13.33753 l -22.3765,-2.54266 22.6667,0.68951 c 38.7954,1.18013 73.9477,4.88036 106.1535,11.17403 44.4525,8.68692 74.9925,5.94666 127.6015,-11.44925 33.5006,-11.07745 58.6013,-23.67367 79.5783,-39.93451 11.759,-9.1153 15.7131,-13.04778 16.1564,-16.06826 0.1616,-1.10161 2.788,-4.70864 5.8362,-8.01563 9.1472,-9.92352 13.6863,-23.44798 8.5333,-25.42537 -1.2656,-0.48566 -8.7603,2.50469 -18.3333,7.31491 -26.4319,13.28139 -59.3294,22.00314 -107.5259,28.50706 -20.1637,2.721 -27.4533,2.97358 -87.3334,3.02601 -58.2668,0.051 -79.6635,-0.72367 -77.5784,-2.80877 0.3662,-0.36625 28.7712,-1.19632 63.1222,-1.84458 81.0629,-1.52981 98.0578,-3.84147 132.9803,-18.08796 48.0454,-19.59993 90.3138,-50.45177 116.2374,-84.84209 16.8728,-22.383397 23.2385,-39.030182 23.2385,-60.770465 V 29.071467 l -9.1442,11.7976 c -18.2831,23.588307 -46.6189,50.859176 -56.0946,53.986424 -2.5918,0.855392 -9.1234,4.163086 -14.5146,7.350429 -22.1645,13.10405 -62.1863,26.88704 -97.5799,33.60526 -42.9763,8.15753 -132.689,19.64931 -199.3333,25.53364 -81.9242,7.23347 -112.7029,13.28994 -161.4586,31.77095 -18.5623,7.03611 -27.8374,11.33313 -29.1915,13.524 -0.457,0.73949 0.7564,3.42561 2.6964,5.96914 1.9401,2.54353 3.8406,6.95961 4.2234,9.81353 0.6946,5.17876 0.6854,5.1906 -4.6569,6.04488 -2.9441,0.47078 -13.3613,3.57483 -23.1495,6.89791 -9.7882,3.32307 -23.4967,7.58832 -30.4633,9.47832 -15.2504,4.13731 -17.6881,5.90945 -16.5409,12.02466 0.7342,3.91393 0.4203,4.57695 -2.735,5.7766 -1.9604,0.74535 -5.0919,1.35519 -6.9588,1.35519 -1.8669,0 -8.5778,2.09752 -14.9132,4.66116 -22.2177,8.99052 -66.5143,17.58901 -83.8521,16.27668 l -8.3334,-0.63077 v 5.55015 c 0,9.07599 -3.1269,10.80278 -19.6316,10.84108 -8.9483,0.0208 -14.1934,0.59337 -15.2666,1.66666 -2.3764,2.37636 -21.047,2.07467 -28.5149,-0.46076 -3.3952,-1.15268 -6.3106,-1.90268 -6.4788,-1.66666 -0.1681,0.23602 -1.2843,2.56314 -2.4804,5.17137 -2.0718,4.51762 -2.0256,5.2123 0.9756,14.66666 5.8533,18.43905 7.5148,29.24666 8.29,53.92443 1.1159,35.52513 -3.0034,67.54685 -14.2363,110.66667 -6.7726,25.99831 -14.9853,51.65444 -21.3404,66.66666 -6.0073,14.19049 -7.6261,21.23929 -5.2193,22.72675 6.4715,3.9996 31.0464,3.8759 39.3908,-0.19828 z M 1058.5299,198.57428 c 4.4277,-5.03003 13.4455,-12.28203 24.8787,-20.00709 18.298,-12.36329 38.4357,-29.8759 39.9917,-34.77838 1.1569,-3.64494 -0.4633,-4.98743 -7.4609,-6.18201 l -5.8694,-1.00197 7.872,-3.85141 c 7.4904,-3.6647 24.7246,-19.04301 24.7246,-22.06206 0,-0.74692 -1.65,-1.36721 -3.6666,-1.37844 -2.0167,-0.0112 -4.4787,-0.53493 -5.471,-1.16377 -2.2989,-1.45672 -1.0034,-4.00819 8.7412,-17.21626 8.3567,-11.3268 10.3854,-15.301214 9.2802,-18.181197 -1.1828,-3.082382 -11.7766,-2.704039 -18.3624,0.655787 -9.7246,4.961097 -26.1138,22.118356 -36.865,38.59252 -5.5037,8.43333 -11.5778,17.71108 -13.4982,20.61722 -6.597,9.98357 -20.5924,23.68118 -27.4915,26.90663 -9.6049,4.49044 -18.4208,4.23604 -26.2969,-0.75887 -9.6828,-6.14063 -17.5432,-17.11918 -36.98202,-51.65218 C 977.70705,81.624774 968.974,72.784588 952.8391,67.416405 c -9.06039,-3.014451 -12.00525,-1.85563 -11.16696,4.394275 0.56725,4.229222 3.17434,9.01904 16.19395,29.75206 2.90828,4.63128 1.58145,6.38094 -4.86613,6.41684 -2.01666,0.0112 -3.66666,0.63153 -3.66666,1.37844 0,3.01906 17.23424,18.39737 24.72462,22.06207 l 7.87198,3.8514 -5.86936,1.00198 c -7.02151,1.19866 -8.61808,2.53617 -7.44381,6.23598 0.92649,2.91912 40.76527,40.53 55.21107,52.12353 11.7676,9.44413 20.5348,13.67679 25.6313,12.37442 1.1693,-0.29878 5.2511,-4.09368 9.0708,-8.43312 z m 49.8462,4.9611 c 10.8375,-4.54148 19.3268,-16.72801 20.4701,-29.38512 1.1049,-12.23282 -5.8595,-18.25398 -12.6962,-10.97665 -2.5733,2.73911 -3.1355,4.88902 -3.3332,12.74548 -0.2183,8.67576 -0.5825,9.79526 -4.4419,13.65464 -5.2315,5.23152 -9.9036,5.4068 -16.8943,0.63378 -5.0347,-3.43746 -14.1473,-4.93236 -14.1473,-2.32083 0,2.07377 12.3744,12.3379 18,14.93033 6.4323,2.96421 7.5382,3.02512 13.0428,0.71837 z m -113.7336,-6.18974 c 2.86164,-1.4599 6.7377,-4.66653 8.6136,-7.12585 6.5354,-8.56843 3.6678,-9.74056 -8.63571,-3.52978 -9.30762,4.69847 -12.41152,4.38262 -18.4822,-1.88072 -6.98601,-7.20774 -8.01812,-16.11934 -2.04064,-17.61959 4.29847,-1.07885 4.08356,-3.88035 -0.66169,-8.6256 -5.02519,-5.02519 -7.35636,-4.9103 -12.90256,0.6359 -3.97956,3.97956 -4.53334,5.37049 -4.53334,11.38645 0,8.02603 3.14083,14.90792 9.54983,20.92473 9.37913,8.80518 19.35001,10.80482 29.09271,5.83446 z m 59.5425,-44.10186 c 8.05,-3.89695 18.6789,-15.96288 29.6797,-33.69254 11.9892,-19.32235 18.8525,-28.628973 30.6875,-41.612074 5.1962,-5.700375 9.4478,-10.745154 9.4478,-11.210621 0,-1.832528 -37.433,-8.224584 -56.8173,-9.70212 -33.724,-2.570562 -78.50747,1.856263 -89.11931,8.809403 l -3.41388,2.23686 2.65618,5.206525 c 1.46089,2.863588 3.26765,5.584443 4.01502,6.046344 3.10893,1.921423 12.86768,18.130246 22.72359,37.742823 11.0436,21.97589 18.3268,31.9654 26.4253,36.24408 6.5396,3.4551 16.4958,3.42626 23.7154,-0.0687 z"
       id="path1" />
  </g>
</svg>
